<svg width="18" height="33" viewBox="0 0 18 33" fill="none" xmlns="http://www.w3.org/2000/svg">
<path d="M16.7546 2.11155C15.9247 1.28156 14.9167 0.866455 13.7306 0.866455H5.1923C4.00624 0.866455 2.9983 1.28156 2.16832 2.11155C1.33841 2.94176 0.923462 3.94963 0.923462 5.13576V13.6741C0.923462 14.8601 1.33841 15.8679 2.16832 16.6979C2.9983 17.5278 4.00632 17.9431 5.1923 17.9431H10.1731C10.7658 17.9431 11.2703 18.1507 11.6854 18.5656C12.1 18.9806 12.3079 19.4846 12.3079 20.0779V20.789C12.3079 22.3604 11.7519 23.7015 10.64 24.8135C9.52835 25.925 8.18723 26.4809 6.61551 26.4809H5.1923C4.80694 26.4809 4.47322 26.6221 4.19176 26.9036C3.91006 27.185 3.76902 27.5187 3.76902 27.9041V30.7506C3.76902 31.1354 3.91006 31.4697 4.19176 31.7512C4.47314 32.0326 4.80686 32.1739 5.1923 32.1739H6.61551C8.15709 32.1739 9.62827 31.8732 11.0294 31.2731C12.43 30.6729 13.6416 29.861 14.6646 28.8381C15.6874 27.8152 16.4996 26.6033 17.0995 25.2027C17.6997 23.8022 18.0001 22.3307 18.0001 20.7891V5.13545C17.9998 3.94931 17.5851 2.94145 16.7546 2.11155Z" fill="#F6762C"/>
</svg>
